<svg width="64" height="64" viewBox="0 0 64 64" fill="none" xmlns="http://www.w3.org/2000/svg">
<path d="M31.9591 63.9977C14.5505 64.1453 -0.010659 49.7326 5.85468e-06 31.9852C5.85468e-06 14.4069 14.458 -0.28862 32.5421 -0.00584301C49.8957 0.268041 64.0498 14.5883 64.0036 32.1329C63.9485 49.6277 49.5242 64.1773 31.9591 63.9977ZM4.41882 31.6296C4.42949 38.4233 6.44338 44.1678 10.4623 49.2097C11.0453 49.9425 10.8853 50.099 11.7065 49.2844C24.2247 36.7581 36.7471 24.227 49.2736 11.6912C49.3628 11.5926 49.4572 11.4988 49.5562 11.4101C49.885 11.1452 49.8441 10.9584 49.5135 10.6988C43.3048 5.67814 36.202 3.65959 28.3224 4.67154C21.1271 5.59457 15.2081 9.01455 10.6116 14.6167C6.48248 19.6462 4.45259 25.4725 4.41882 31.6385V31.6296ZM32.1991 59.6618C34.6018 59.6303 36.9909 59.2938 39.309 58.6606C44.5022 57.2492 49.1567 54.3204 52.6774 50.2484C58.2392 43.8726 60.3846 36.4403 59.3057 28.1011C58.6569 23.0858 56.6199 18.6201 53.44 14.6754C53.0845 14.2361 52.9067 14.2593 52.5335 14.6327C39.911 27.2777 27.2766 39.9161 14.6304 52.5479C14.2163 52.9623 14.2625 53.1544 14.6962 53.503C19.7674 57.5597 25.5566 59.5658 32.1991 59.6618Z" fill="#838383"/>
</svg>
