<svg width="21" height="25" viewBox="0 0 21 25" fill="current" stroke="current" xmlns="http://www.w3.org/2000/svg">
<path d="M20.3125 12.3125C20.3333 12.4167 20.2917 12.5104 20.1875 12.5938C20.0833 12.6562 19.9792 12.7188 19.875 12.7812C19.7917 12.8438 19.7188 12.9167 19.6562 13C19.6146 13.0625 19.6562 13.1354 19.7812 13.2188C19.9271 13.1771 20.0208 13.1979 20.0625 13.2812C20.1042 13.3438 20.1771 13.3542 20.2812 13.3125C20.2604 13.3542 20.2188 13.4375 20.1562 13.5625C20.1146 13.6667 20.1562 13.7188 20.2812 13.7188C20.2188 13.9271 20.1146 14.1042 19.9688 14.25C19.8229 14.375 19.6667 14.5 19.5 14.625C19.3542 14.7292 19.1979 14.8438 19.0312 14.9688C18.8646 15.0729 18.7292 15.2083 18.625 15.375C17.8958 15.4792 17.3646 15.5625 17.0312 15.625C16.7188 15.6667 16.4271 15.7188 16.1562 15.7812C15.9062 15.8229 15.6146 15.875 15.2812 15.9375C14.9479 15.9792 14.4271 16.0625 13.7188 16.1875C13.6146 16.3125 13.5 16.4167 13.375 16.5C13.2708 16.5833 13.1562 16.6875 13.0312 16.8125C12.9271 16.9167 12.8333 17.0417 12.75 17.1875C12.6875 17.3333 12.6562 17.5104 12.6562 17.7188C12.4062 17.8854 12.1875 18.0938 12 18.3438C11.8333 18.5938 11.6667 18.8542 11.5 19.125C11.3542 19.3958 11.1979 19.6667 11.0312 19.9375C10.8646 20.2083 10.6771 20.4583 10.4688 20.6875C10.4896 20.7917 10.5312 20.875 10.5938 20.9375C10.6562 20.9792 10.6771 21.0625 10.6562 21.1875C10.4062 21.3125 10.2188 21.5312 10.0938 21.8438C9.98958 22.1354 9.88542 22.4375 9.78125 22.75C9.67708 23.0625 9.53125 23.3542 9.34375 23.625C9.15625 23.875 8.85417 24.0104 8.4375 24.0312C8.16667 23.9479 7.9375 23.8958 7.75 23.875C7.5625 23.8333 7.375 23.8125 7.1875 23.8125C7.02083 23.8125 6.84375 23.8229 6.65625 23.8438C6.46875 23.8438 6.25 23.8438 6 23.8438C6 23.6771 5.96875 23.5 5.90625 23.3125C5.86458 23.125 5.9375 22.9896 6.125 22.9062C6.02083 22.6354 5.82292 22.4688 5.53125 22.4062C5.55208 21.5104 5.70833 20.6146 6 19.7188C6.3125 18.8229 6.65625 18.0312 7.03125 17.3438C6.61458 17.4062 6.29167 17.4583 6.0625 17.5C5.83333 17.5208 5.61458 17.5417 5.40625 17.5625C5.21875 17.5833 5.01042 17.5938 4.78125 17.5938C4.57292 17.5729 4.28125 17.5625 3.90625 17.5625C3.90625 17.3125 3.80208 17.1667 3.59375 17.125C3.38542 17.0833 3.21875 16.9896 3.09375 16.8438C3.05208 16.6146 2.9375 16.4271 2.75 16.2812C2.58333 16.1354 2.41667 16.0104 2.25 15.9062C2.25 15.6771 2.35417 15.5729 2.5625 15.5938C2.52083 15.3854 2.45833 15.1771 2.375 14.9688C2.3125 14.7604 2.41667 14.5833 2.6875 14.4375C2.66667 14.3542 2.60417 14.3125 2.5 14.3125C2.41667 14.2917 2.41667 14.1979 2.5 14.0312C2.77083 13.3646 3.15625 12.9167 3.65625 12.6875C4.15625 12.4375 4.70833 12.2812 5.3125 12.2188C5.91667 12.1354 6.54167 12.0833 7.1875 12.0625C7.83333 12.0208 8.44792 11.8542 9.03125 11.5625C9.40625 11.6458 9.73958 11.6562 10.0312 11.5938C10.3229 11.5312 10.6354 11.4583 10.9688 11.375C11.0104 10.9792 11.125 10.5938 11.3125 10.2188C11.5 9.84375 11.6458 9.45833 11.75 9.0625C11.7708 8.85417 11.7292 8.69792 11.625 8.59375C11.5208 8.48958 11.5 8.30208 11.5625 8.03125C11.1667 7.65625 10.75 7.39583 10.3125 7.25C9.875 7.10417 9.41667 7 8.9375 6.9375C8.45833 6.875 7.95833 6.83333 7.4375 6.8125C6.91667 6.79167 6.39583 6.71875 5.875 6.59375C5.33333 6.57292 4.85417 6.59375 4.4375 6.65625C4.04167 6.69792 3.66667 6.75 3.3125 6.8125C2.95833 6.875 2.60417 6.91667 2.25 6.9375C1.91667 6.95833 1.53125 6.92708 1.09375 6.84375C1.15625 6.71875 1.17708 6.61458 1.15625 6.53125C1.15625 6.42708 1.125 6.33333 1.0625 6.25C1.02083 6.16667 0.947917 6.07292 0.84375 5.96875C0.760417 5.84375 0.677083 5.69792 0.59375 5.53125C0.65625 5.21875 0.729167 4.78125 0.8125 4.21875C0.916667 3.65625 0.9375 3.13542 0.875 2.65625C1.02083 2.63542 1.11458 2.60417 1.15625 2.5625C1.19792 2.52083 1.21875 2.46875 1.21875 2.40625C1.23958 2.34375 1.25 2.28125 1.25 2.21875C1.27083 2.13542 1.32292 2.05208 1.40625 1.96875C1.61458 1.96875 1.79167 1.875 1.9375 1.6875C2.10417 1.5 2.30208 1.35417 2.53125 1.25C2.96875 1.22917 3.27083 1.20833 3.4375 1.1875C3.625 1.16667 3.77083 1.14583 3.875 1.125C4 1.08333 4.125 1.04167 4.25 1C4.39583 0.958333 4.64583 0.90625 5 0.84375C5.08333 0.822917 5.13542 0.833333 5.15625 0.875C5.19792 0.895833 5.22917 0.927083 5.25 0.96875C5.27083 0.989583 5.29167 1.02083 5.3125 1.0625C5.35417 1.08333 5.41667 1.08333 5.5 1.0625C5.89583 1.02083 6.22917 1 6.5 1C6.77083 0.979167 7.02083 0.979167 7.25 1C7.5 1 7.72917 1.03125 7.9375 1.09375C8.16667 1.13542 8.4375 1.19792 8.75 1.28125C8.875 1.28125 9 1.28125 9.125 1.28125C9.27083 1.26042 9.39583 1.25 9.5 1.25C9.625 1.25 9.71875 1.27083 9.78125 1.3125C9.86458 1.35417 9.92708 1.44792 9.96875 1.59375C10.3646 1.55208 10.7083 1.55208 11 1.59375C11.3125 1.63542 11.6042 1.70833 11.875 1.8125C12.1667 1.89583 12.4583 2.01042 12.75 2.15625C13.0625 2.28125 13.4271 2.40625 13.8438 2.53125C14.1354 3.07292 14.4271 3.59375 14.7188 4.09375C15.0312 4.59375 15.4583 4.98958 16 5.28125C16.0208 5.38542 16.0104 5.45833 15.9688 5.5C15.9271 5.52083 15.9062 5.58333 15.9062 5.6875C15.7396 5.79167 15.6771 5.85417 15.7188 5.875C15.7604 5.89583 15.8125 5.90625 15.875 5.90625C15.9375 5.90625 16 5.91667 16.0625 5.9375C16.125 5.9375 16.1667 5.95833 16.1875 6C16.1875 6.08333 16.1562 6.14583 16.0938 6.1875C16.0521 6.20833 16.0208 6.25 16 6.3125C16.125 6.52083 16.1875 6.80208 16.1875 7.15625C16.2083 7.51042 16.1875 7.90625 16.125 8.34375C16.0833 8.76042 16.0312 9.19792 15.9688 9.65625C15.9271 10.1146 15.9271 10.5417 15.9688 10.9375C16.5104 11.0417 16.875 11.1146 17.0625 11.1562C17.2708 11.1771 17.4375 11.1875 17.5625 11.1875C17.7083 11.1875 17.8958 11.1875 18.125 11.1875C18.375 11.1667 18.8125 11.1667 19.4375 11.1875C19.4583 11.5 19.5625 11.7292 19.75 11.875C19.9583 12 20.1458 12.1458 20.3125 12.3125Z" fill="current"/>
</svg>
