<svg width="10" height="25" viewBox="0 0 10 25" fill="current" stroke="current" xmlns="http://www.w3.org/2000/svg">
<path d="M5.9375 1.375C6.16667 1.83333 6.45833 2.20833 6.8125 2.5C7.1875 2.77083 7.55208 3.05208 7.90625 3.34375C8.34375 4.15625 8.61458 5.0625 8.71875 6.0625C8.82292 7.0625 8.9375 8.15625 9.0625 9.34375C9.0625 10.3021 9 11.2083 8.875 12.0625C8.75 12.8958 8.58333 13.7188 8.375 14.5312C8.1875 15.3229 7.96875 16.1146 7.71875 16.9062C7.46875 17.6979 7.22917 18.5312 7 19.4062C6.70833 19.7188 6.47917 20.1667 6.3125 20.75C6.16667 21.3125 6.15625 21.8646 6.28125 22.4062C6.01042 22.7396 5.73958 23.0625 5.46875 23.375C5.19792 23.6875 4.89583 23.9792 4.5625 24.25C4.4375 24.125 4.27083 24.0521 4.0625 24.0312C3.875 24.0312 3.67708 24.0312 3.46875 24.0312C3.26042 24.0521 3.0625 24.0729 2.875 24.0938C2.70833 24.1354 2.58333 24.1458 2.5 24.125C2.39583 23.9583 2.25 23.7812 2.0625 23.5938C1.89583 23.4062 1.73958 23.2083 1.59375 23C1.46875 22.7917 1.36458 22.5938 1.28125 22.4062C1.21875 22.1979 1.23958 22 1.34375 21.8125C1.34375 21.5833 1.21875 21.4688 0.96875 21.4688C1.03125 20.5104 1.1875 19.5729 1.4375 18.6562C1.6875 17.7188 1.96875 16.8125 2.28125 15.9375C2.59375 15.0417 2.89583 14.1562 3.1875 13.2812C3.5 12.4062 3.72917 11.5417 3.875 10.6875C4.04167 9.83333 4.08333 8.97917 4 8.125C3.9375 7.27083 3.69792 6.40625 3.28125 5.53125C3.28125 5.23958 3.27083 5 3.25 4.8125C3.25 4.60417 3.23958 4.42708 3.21875 4.28125C3.21875 4.11458 3.20833 3.95833 3.1875 3.8125C3.16667 3.66667 3.125 3.51042 3.0625 3.34375C3.16667 3.05208 3.23958 2.78125 3.28125 2.53125C3.34375 2.28125 3.34375 2.05208 3.28125 1.84375C3.30208 1.69792 3.34375 1.58333 3.40625 1.5C3.46875 1.39583 3.54167 1.30208 3.625 1.21875C3.70833 1.11458 3.78125 1.02083 3.84375 0.9375C3.92708 0.833333 3.97917 0.708333 4 0.5625H4.6875C4.91667 0.75 5.11458 0.927083 5.28125 1.09375C5.44792 1.23958 5.66667 1.33333 5.9375 1.375Z" fill="current"/>
</svg>
