<svg width="21" height="21" viewBox="0 0 21 21" fill="none" xmlns="http://www.w3.org/2000/svg">
<path fill-rule="evenodd" clip-rule="evenodd" d="M3.89922 3.89943C7.79842 0.000228295 14.142 0.000228295 18.0412 3.89943C21.9404 7.79863 21.9404 14.1422 18.0412 18.0414C14.142 21.9406 7.79842 21.9406 3.89922 18.0414C1.91951e-05 14.1422 1.88579e-05 7.79863 3.89922 3.89943ZM4.96009 4.9603C1.64574 8.27465 1.64574 13.6675 4.95946 16.9812C8.27381 20.2955 13.6666 20.2955 16.981 16.9812C20.2947 13.6675 20.2947 8.27465 16.9803 4.9603C13.6666 1.64659 8.2738 1.64659 4.96009 4.9603ZM9.89407 10.9952L6.83109 14.0582L7.89133 15.1185L10.9543 12.0555L14.0561 15.1573L15.117 14.0964L12.0152 10.9946L15.145 7.86481L14.0847 6.80458L10.9549 9.93437L7.86333 6.84276L6.80246 7.90363L9.89407 10.9952Z" fill="#FF3B3B"/>
</svg>
