<svg width="19" height="23" viewBox="0 0 19 23" fill="current" stroke="current" xmlns="http://www.w3.org/2000/svg">
<path d="M2.14062 1.75C3.28646 1.52083 4.42188 1.29167 5.54688 1.0625C6.67188 0.8125 7.79688 0.604167 8.92188 0.4375C10.0677 0.270833 11.2344 0.15625 12.4219 0.09375C13.6094 0.03125 14.8594 0.0625 16.1719 0.1875C16.6927 0.729167 17.151 1.32292 17.5469 1.96875C17.9427 2.59375 18.3177 3.25 18.6719 3.9375C18.6302 4.08333 18.599 4.22917 18.5781 4.375C18.5781 4.52083 18.5573 4.67708 18.5156 4.84375C18.4115 5.11458 18.2656 5.36458 18.0781 5.59375C17.9115 5.80208 17.776 6.05208 17.6719 6.34375C17.151 6.63542 16.651 6.94792 16.1719 7.28125C15.7135 7.61458 15.2552 7.95833 14.7969 8.3125C14.4219 8.47917 14.026 8.63542 13.6094 8.78125C13.2135 8.90625 12.9115 9.15625 12.7031 9.53125C13.3906 9.82292 13.9948 10.1771 14.5156 10.5938C15.0365 11.0104 15.4948 11.4792 15.8906 12C16.2865 12.5208 16.6302 13.0833 16.9219 13.6875C17.2135 14.2917 17.474 14.9167 17.7031 15.5625C17.6615 15.875 17.6094 16.1979 17.5469 16.5312C17.4844 16.8646 17.4844 17.1458 17.5469 17.375C17.401 17.8125 17.2031 18.1667 16.9531 18.4375C16.724 18.6875 16.4948 19.0312 16.2656 19.4688C15.5365 19.7812 14.9427 20.2188 14.4844 20.7812C14.276 20.7812 14.1719 20.7396 14.1719 20.6562C13.526 21.0938 12.776 21.4688 11.9219 21.7812C11.0677 22.0729 10.151 22.3021 9.17188 22.4688C8.19271 22.6354 7.16146 22.7292 6.07812 22.75C4.99479 22.7708 3.91146 22.7292 2.82812 22.625C2.74479 22.5625 2.67188 22.4896 2.60938 22.4062C2.54688 22.3229 2.42188 22.2917 2.23438 22.3125C2.15104 22.1042 2.03646 21.9271 1.89062 21.7812C1.76562 21.6146 1.66146 21.4271 1.57812 21.2188C1.78646 20.8854 1.92188 20.5 1.98438 20.0625C2.06771 19.625 2.15104 19.2083 2.23438 18.8125C2.33854 18.3958 2.47396 18.0312 2.64062 17.7188C2.80729 17.3854 3.08854 17.1458 3.48438 17C3.65104 16.9792 3.74479 17.0312 3.76562 17.1562C3.78646 17.2812 3.84896 17.3646 3.95312 17.4062C4.76562 17.4062 5.57812 17.3958 6.39062 17.375C7.20312 17.3333 7.97396 17.2604 8.70312 17.1562C9.43229 17.0312 10.1094 16.8542 10.7344 16.625C11.3802 16.3958 11.9323 16.0729 12.3906 15.6562C11.7656 15.1562 11.0365 14.7812 10.2031 14.5312C9.36979 14.2604 8.55729 14 7.76562 13.75C6.99479 13.5 6.30729 13.1875 5.70312 12.8125C5.09896 12.4167 4.70312 11.8438 4.51562 11.0938C4.61979 10.6146 4.69271 10.1875 4.73438 9.8125C4.77604 9.4375 4.82812 9.09375 4.89062 8.78125C4.95312 8.46875 5.04688 8.17708 5.17188 7.90625C5.31771 7.61458 5.54688 7.33333 5.85938 7.0625C5.75521 7 5.59896 6.98958 5.39062 7.03125C5.20312 7.05208 4.99479 7.10417 4.76562 7.1875C4.53646 7.25 4.30729 7.33333 4.07812 7.4375C3.86979 7.52083 3.69271 7.59375 3.54688 7.65625C3.10938 7.55208 2.66146 7.48958 2.20312 7.46875C1.76562 7.42708 1.35938 7.29167 0.984375 7.0625C0.942708 6.83333 0.890625 6.58333 0.828125 6.3125C0.765625 6.02083 0.723958 5.72917 0.703125 5.4375C0.682292 5.14583 0.703125 4.85417 0.765625 4.5625C0.828125 4.27083 0.973958 4 1.20312 3.75C1.16146 3.60417 1.13021 3.45833 1.10938 3.3125C1.08854 3.16667 1.04688 3.04167 0.984375 2.9375C1.21354 2.75 1.45312 2.5625 1.70312 2.375C1.97396 2.1875 2.11979 1.97917 2.14062 1.75Z" fill="current"/>
</svg>
