<svg width="21" height="23" viewBox="0 0 21 23" fill="current" stroke="current" xmlns="http://www.w3.org/2000/svg">
<path d="M18.9375 2C19.0625 2.16667 19.1875 2.375 19.3125 2.625C19.4375 2.875 19.4479 3.10417 19.3438 3.3125C19.7188 3.6875 20.0104 4.14583 20.2188 4.6875C20.4479 5.22917 20.4271 5.82292 20.1562 6.46875C19.6771 6.63542 19.25 6.77083 18.875 6.875C18.5208 6.95833 18.1354 7.0625 17.7188 7.1875C16.9271 7.22917 16.4271 7.26042 16.2188 7.28125C16.0312 7.30208 15.8854 7.32292 15.7812 7.34375C15.6771 7.36458 15.5104 7.40625 15.2812 7.46875C15.0729 7.51042 14.6042 7.58333 13.875 7.6875C13.875 7.60417 13.8646 7.55208 13.8438 7.53125C13.8438 7.51042 13.8229 7.51042 13.7812 7.53125C13.7604 7.55208 13.7292 7.57292 13.6875 7.59375C13.6667 7.61458 13.625 7.61458 13.5625 7.59375C13.1458 7.73958 12.7292 7.85417 12.3125 7.9375C11.8958 8 11.4792 8.0625 11.0625 8.125C10.6458 8.1875 10.2292 8.27083 9.8125 8.375C9.39583 8.45833 8.96875 8.60417 8.53125 8.8125C8.57292 8.91667 8.63542 9 8.71875 9.0625C8.80208 9.10417 8.88542 9.15625 8.96875 9.21875C9.07292 9.26042 9.16667 9.3125 9.25 9.375C9.33333 9.4375 9.39583 9.52083 9.4375 9.625C10.0208 9.77083 10.5 10.0104 10.875 10.3438C11.2708 10.6562 11.625 11.0208 11.9375 11.4375C12.25 11.8333 12.5521 12.2396 12.8438 12.6562C13.1354 13.0729 13.4792 13.4479 13.875 13.7812C13.875 13.9062 13.9062 14 13.9688 14.0625C14.0312 14.125 14.0417 14.2396 14 14.4062C14.375 14.8854 14.6667 15.4583 14.875 16.125C15.0833 16.7917 15.125 17.5625 15 18.4375C14.7292 19.1042 14.4062 19.6771 14.0312 20.1562C13.6562 20.6146 13.1667 21.0938 12.5625 21.5938C12.0833 21.8021 11.6146 21.9688 11.1562 22.0938C10.6979 22.1979 10.2917 22.3646 9.9375 22.5938C9.77083 22.4896 9.61458 22.4479 9.46875 22.4688C9.34375 22.4688 9.22917 22.4479 9.125 22.4062C8.64583 22.6146 8.13542 22.7604 7.59375 22.8438C7.05208 22.9062 6.47917 22.7917 5.875 22.5C5.4375 22.5208 4.98958 22.5104 4.53125 22.4688C4.09375 22.4062 3.6875 22.3021 3.3125 22.1562C2.9375 22.0104 2.61458 21.8125 2.34375 21.5625C2.09375 21.2917 1.92708 20.9583 1.84375 20.5625C1.36458 20.1667 1.05208 19.6771 0.90625 19.0938C0.760417 18.4896 0.833333 17.9062 1.125 17.3438C1.25 17.3021 1.34375 17.2708 1.40625 17.25C1.48958 17.2083 1.59375 17.1354 1.71875 17.0312C2.82292 17.1354 3.94792 17.2292 5.09375 17.3125C6.26042 17.375 7.5 17.2812 8.8125 17.0312C8.85417 16.8646 8.92708 16.75 9.03125 16.6875C9.15625 16.6042 9.29167 16.5312 9.4375 16.4688C9.58333 16.4062 9.71875 16.3438 9.84375 16.2812C9.96875 16.2188 10.0625 16.125 10.125 16C10.125 15.875 10.0938 15.7917 10.0312 15.75C9.96875 15.6875 9.90625 15.6354 9.84375 15.5938C9.78125 15.5312 9.71875 15.4688 9.65625 15.4062C9.61458 15.3438 9.60417 15.2396 9.625 15.0938C9.35417 15.0938 9.03125 15 8.65625 14.8125C8.30208 14.625 8.02083 14.4167 7.8125 14.1875C6.89583 14.0208 5.97917 13.7083 5.0625 13.25C4.16667 12.7917 3.29167 12.3646 2.4375 11.9688C2.29167 11.7188 2.125 11.4896 1.9375 11.2812C1.77083 11.0521 1.60417 10.8229 1.4375 10.5938C1.27083 10.3438 1.125 10.0938 1 9.84375C0.895833 9.59375 0.833333 9.32292 0.8125 9.03125C0.833333 8.69792 0.854167 8.38542 0.875 8.09375C0.895833 7.78125 0.916667 7.47917 0.9375 7.1875C0.958333 6.875 0.989583 6.5625 1.03125 6.25C1.07292 5.91667 1.13542 5.5625 1.21875 5.1875C2.11458 3.95833 3.22917 2.92708 4.5625 2.09375C5.91667 1.23958 7.30208 0.541667 8.71875 0C8.94792 0.229167 9.17708 0.479167 9.40625 0.75C9.63542 1 9.875 1.23958 10.125 1.46875C10.375 1.69792 10.6354 1.89583 10.9062 2.0625C11.1979 2.22917 11.5208 2.32292 11.875 2.34375C12.1042 2.28125 12.2812 2.23958 12.4062 2.21875C12.5312 2.19792 12.6458 2.1875 12.75 2.1875C12.8542 2.1875 12.9896 2.1875 13.1562 2.1875C13.3229 2.1875 13.5625 2.16667 13.875 2.125C14.1875 2.08333 14.4896 2.0625 14.7812 2.0625C15.0729 2.0625 15.3438 2.05208 15.5938 2.03125C16.1146 1.98958 16.4896 1.94792 16.7188 1.90625C16.9688 1.86458 17.1354 1.83333 17.2188 1.8125C17.3021 1.79167 17.3438 1.78125 17.3438 1.78125C17.3438 1.76042 17.375 1.76042 17.4375 1.78125C17.5208 1.78125 17.6667 1.80208 17.875 1.84375C18.0833 1.88542 18.4375 1.9375 18.9375 2Z" fill="current"/>
</svg>
