<svg width="16" height="25" viewBox="0 0 16 25" fill="current" stroke="current" xmlns="http://www.w3.org/2000/svg">
<path d="M14.5156 14.5C14.724 14.625 14.8906 14.7812 15.0156 14.9688C15.1406 15.1562 15.276 15.3333 15.4219 15.5C15.4219 15.8958 15.4531 16.3542 15.5156 16.875C15.599 17.3958 15.599 17.9062 15.5156 18.4062C15.099 19.0729 14.6406 19.6979 14.1406 20.2812C13.6406 20.8646 13.026 21.3438 12.2969 21.7188C12.1927 21.7396 12.1615 21.8229 12.2031 21.9688C12.2448 22.0938 12.2135 22.1771 12.1094 22.2188C11.9427 22.2188 11.8177 22.2708 11.7344 22.375C11.651 22.4583 11.5365 22.4375 11.3906 22.3125C11.1615 22.4583 10.9219 22.5938 10.6719 22.7188C10.4219 22.8229 10.2031 22.9583 10.0156 23.125C9.82812 23.1042 9.66146 23.1146 9.51562 23.1562C9.36979 23.1979 9.22396 23.25 9.07812 23.3125C8.93229 23.3542 8.78646 23.3958 8.64062 23.4375C8.49479 23.4792 8.34896 23.4792 8.20312 23.4375C7.53646 23.7708 6.79688 24.0417 5.98438 24.25C5.17188 24.4583 4.30729 24.4896 3.39062 24.3438C2.76562 24.2396 2.22396 24.0104 1.76562 23.6562C1.30729 23.3021 0.942708 22.8646 0.671875 22.3438C0.401042 21.8021 0.234375 21.1979 0.171875 20.5312C0.109375 19.8438 0.171875 19.1354 0.359375 18.4062C0.317708 18.3438 0.296875 18.2604 0.296875 18.1562C0.276042 18.0521 0.265625 17.9479 0.265625 17.8438C0.265625 17.7396 0.265625 17.6354 0.265625 17.5312C0.265625 17.4271 0.234375 17.3542 0.171875 17.3125C0.296875 17.1042 0.401042 16.8958 0.484375 16.6875C0.588542 16.4583 0.588542 16.1979 0.484375 15.9062C0.588542 15.8854 0.661458 15.8333 0.703125 15.75C0.744792 15.6458 0.776042 15.5312 0.796875 15.4062C0.838542 15.2812 0.869792 15.1667 0.890625 15.0625C0.932292 14.9583 0.994792 14.875 1.07812 14.8125C1.11979 14.25 1.22396 13.7188 1.39062 13.2188C1.55729 12.7188 1.74479 12.2396 1.95312 11.7812C2.18229 11.3021 2.42188 10.8333 2.67188 10.375C2.92188 9.91667 3.16146 9.44792 3.39062 8.96875C3.30729 8.80208 3.27604 8.69792 3.29688 8.65625C3.33854 8.59375 3.36979 8.46875 3.39062 8.28125C3.70312 7.76042 4.01562 7.20833 4.32812 6.625C4.64062 6.02083 4.97396 5.42708 5.32812 4.84375C5.68229 4.23958 6.05729 3.66667 6.45312 3.125C6.84896 2.5625 7.29688 2.07292 7.79688 1.65625C8.13021 1.59375 8.45312 1.48958 8.76562 1.34375C9.07812 1.19792 9.39062 1.07292 9.70312 0.96875C10.0156 0.864583 10.3281 0.802083 10.6406 0.78125C10.974 0.739583 11.3281 0.802083 11.7031 0.96875C11.7448 1.15625 11.7552 1.29167 11.7344 1.375C11.7344 1.45833 11.7552 1.55208 11.7969 1.65625C12.1302 1.82292 12.3177 2.09375 12.3594 2.46875C12.4219 2.84375 12.474 3.20833 12.5156 3.5625C12.7656 3.6875 12.9427 3.875 13.0469 4.125C13.151 4.375 13.2344 4.65625 13.2969 4.96875C13.0469 5.21875 12.8073 5.45833 12.5781 5.6875C12.3698 5.91667 12.151 6.11458 11.9219 6.28125C11.8385 6.32292 11.724 6.34375 11.5781 6.34375C11.4323 6.32292 11.3385 6.30208 11.2969 6.28125C10.6719 6.55208 10.1198 6.91667 9.64062 7.375C9.18229 7.8125 8.77604 8.3125 8.42188 8.875C8.08854 9.4375 7.79688 10.0312 7.54688 10.6562C7.31771 11.2812 7.13021 11.8958 6.98438 12.5C6.38021 13.3958 5.89062 14.3229 5.51562 15.2812C5.14062 16.2396 4.82812 17.3125 4.57812 18.5C4.59896 18.6667 4.68229 18.7396 4.82812 18.7188C4.99479 18.6979 5.15104 18.6979 5.29688 18.7188C5.54688 18.2812 5.70312 17.8646 5.76562 17.4688C5.84896 17.0729 5.89062 16.6146 5.89062 16.0938C6.11979 15.6979 6.36979 15.3229 6.64062 14.9688C6.91146 14.6146 7.16146 14.2292 7.39062 13.8125C7.72396 13.5625 8.03646 13.3438 8.32812 13.1562C8.61979 12.9688 8.91146 12.8125 9.20312 12.6875C9.49479 12.5417 9.80729 12.4167 10.1406 12.3125C10.4948 12.1875 10.9115 12.0833 11.3906 12C11.8906 12.0417 12.3177 12.1458 12.6719 12.3125C13.0469 12.4792 13.3594 12.6875 13.6094 12.9375C13.8594 13.1667 14.0573 13.4271 14.2031 13.7188C14.349 13.9896 14.4531 14.25 14.5156 14.5Z" fill="current"/>
</svg>
