<svg width="22" height="25" viewBox="0 0 22 25" fill="current" stroke="current" xmlns="http://www.w3.org/2000/svg">
<path d="M21.0625 18.5625C21.5625 18.8125 21.8125 19.125 21.8125 19.5C21.8333 19.875 21.7188 20.2292 21.4688 20.5625C21.2396 20.875 20.9271 21.1146 20.5312 21.2812C20.1562 21.4479 19.8125 21.4375 19.5 21.25C19.4583 21.4167 19.3646 21.5312 19.2188 21.5938C19.0938 21.6354 19.0104 21.7292 18.9688 21.875C16.9479 22.1875 14.8854 22.5729 12.7812 23.0312C10.6771 23.4896 8.57292 23.8333 6.46875 24.0625C4.84375 24 3.48958 23.7604 2.40625 23.3438C1.96875 22.9688 1.63542 22.5 1.40625 21.9375C1.19792 21.375 1.07292 20.7812 1.03125 20.1562C0.989583 19.5312 1.01042 18.9271 1.09375 18.3438C1.17708 17.7396 1.30208 17.2188 1.46875 16.7812C2.55208 15.4062 3.67708 14.0938 4.84375 12.8438C6.03125 11.5729 7.375 10.4479 8.875 9.46875C9.3125 8.92708 9.82292 8.46875 10.4062 8.09375C10.9896 7.69792 11.5208 7.26042 12 6.78125C11.375 6.55208 10.7188 6.4375 10.0312 6.4375C9.34375 6.4375 8.66667 6.5 8 6.625C7.33333 6.72917 6.70833 6.86458 6.125 7.03125C5.54167 7.19792 5.03125 7.32292 4.59375 7.40625C4.26042 7.23958 3.86458 7.14583 3.40625 7.125C2.96875 7.10417 2.53125 7.02083 2.09375 6.875C1.84375 6.66667 1.66667 6.39583 1.5625 6.0625C1.47917 5.72917 1.42708 5.38542 1.40625 5.03125C1.38542 4.67708 1.375 4.34375 1.375 4.03125C1.375 3.69792 1.33333 3.42708 1.25 3.21875C1.41667 2.94792 1.5625 2.67708 1.6875 2.40625C1.83333 2.13542 2 1.88542 2.1875 1.65625C3.16667 1.38542 4.25 1.16667 5.4375 1C6.625 0.8125 7.82292 0.729167 9.03125 0.75C10.2396 0.770833 11.4062 0.927083 12.5312 1.21875C13.6562 1.48958 14.6562 1.94792 15.5312 2.59375C15.6354 3.17708 15.8542 3.64583 16.1875 4C16.5208 4.33333 16.9271 4.59375 17.4062 4.78125C17.6354 5.19792 17.8333 5.625 18 6.0625C18.1667 6.47917 18.2812 6.92708 18.3438 7.40625C17.9271 8.51042 17.3333 9.44792 16.5625 10.2188C15.8125 10.9688 15.0521 11.6562 14.2812 12.2812C13.8646 12.6354 13.4167 12.9375 12.9375 13.1875C12.4583 13.4375 12.0417 13.7292 11.6875 14.0625C11.6042 14.1458 11.5521 14.2604 11.5312 14.4062C11.5104 14.5312 11.4583 14.625 11.375 14.6875C11 15.0208 10.5833 15.3229 10.125 15.5938C9.66667 15.8438 9.25 16.1354 8.875 16.4688C8.60417 16.6979 8.375 16.9479 8.1875 17.2188C8.02083 17.4896 7.79167 17.7292 7.5 17.9375C7.875 18.0625 8.23958 18.1146 8.59375 18.0938C8.96875 18.0729 9.34375 18.0312 9.71875 17.9688C10.1146 17.9062 10.5104 17.8438 10.9062 17.7812C11.3229 17.7188 11.75 17.6979 12.1875 17.7188C12.7917 17.5104 13.4583 17.3333 14.1875 17.1875C14.9167 17.0208 15.6458 16.9583 16.375 17C17 16.75 17.5938 16.5729 18.1562 16.4688C18.7396 16.3438 19.2917 16.3125 19.8125 16.375C20.0833 16.4792 20.2812 16.6667 20.4062 16.9375C20.5521 17.2083 20.7708 17.3958 21.0625 17.5C21 17.7292 20.9792 17.8958 21 18C21.0417 18.1042 21.0625 18.2917 21.0625 18.5625Z" fill="current"/>
</svg>
