<svg width="18" height="26" viewBox="0 0 18 26" fill="current" stroke="current" xmlns="http://www.w3.org/2000/svg">
<path d="M16.4062 9.40625C16.5312 9.76042 16.6562 10.0729 16.7812 10.3438C16.9062 10.6146 17.1458 10.8542 17.5 11.0625C17.4167 11.5417 17.3958 11.9375 17.4375 12.25C17.4792 12.5625 17.4271 12.9479 17.2812 13.4062C16.9896 13.7188 16.6354 13.9688 16.2188 14.1562C15.8229 14.3438 15.4062 14.5104 14.9688 14.6562C14.5521 14.7812 14.125 14.9167 13.6875 15.0625C13.2708 15.2083 12.8854 15.4062 12.5312 15.6562C12.2604 16.4896 11.9688 17.3125 11.6562 18.125C11.3646 18.9375 11.1042 19.8333 10.875 20.8125C10.9167 20.9167 10.9896 20.9896 11.0938 21.0312C11.1979 21.0729 11.2812 21.1354 11.3438 21.2188C11.2396 21.5104 11.2292 21.75 11.3125 21.9375C11.3958 22.1042 11.5104 22.2604 11.6562 22.4062C11.8021 22.5521 11.9479 22.6979 12.0938 22.8438C12.2604 22.9896 12.375 23.1562 12.4375 23.3438C12.3542 23.5312 12.3021 23.7188 12.2812 23.9062C12.2604 24.0938 12.2396 24.2812 12.2188 24.4688C12.2188 24.6562 12.1875 24.8438 12.125 25.0312C12.0833 25.2188 11.9896 25.4062 11.8438 25.5938C11.4271 25.7604 11 25.8438 10.5625 25.8438C10.1458 25.8438 9.76042 25.8958 9.40625 26C8.96875 25.8958 8.59375 25.6771 8.28125 25.3438C7.98958 25.0312 7.75 24.6667 7.5625 24.25C7.375 23.8333 7.22917 23.4062 7.125 22.9688C7.02083 22.5312 6.9375 22.1458 6.875 21.8125C7 21.5833 6.96875 21.4792 6.78125 21.5C6.69792 21.2083 6.70833 20.9271 6.8125 20.6562C6.91667 20.3854 6.9375 20.1771 6.875 20.0312C6.91667 19.5104 7 18.9688 7.125 18.4062C7.25 17.8229 7.39583 17.1667 7.5625 16.4375C7.29167 16.375 6.98958 16.3229 6.65625 16.2812C6.34375 16.2188 6.03125 16.1771 5.71875 16.1562C5.42708 16.1146 5.15625 16.0833 4.90625 16.0625C4.65625 16.0417 4.46875 16.0312 4.34375 16.0312C4.03125 15.9479 3.76042 15.8229 3.53125 15.6562C3.30208 15.4688 3.09375 15.2708 2.90625 15.0625C2.71875 14.8333 2.53125 14.6042 2.34375 14.375C2.17708 14.1458 2 13.9271 1.8125 13.7188C1.75 12.9896 1.64583 12.25 1.5 11.5C1.35417 10.75 1.21875 10.0208 1.09375 9.3125C0.96875 8.60417 0.875 7.9375 0.8125 7.3125C0.75 6.6875 0.78125 6.125 0.90625 5.625C1.11458 5.3125 1.32292 5.01042 1.53125 4.71875C1.73958 4.42708 1.98958 4.17708 2.28125 3.96875C2.51042 4.03125 2.6875 4.14583 2.8125 4.3125C2.95833 4.45833 3.08333 4.625 3.1875 4.8125C3.3125 4.97917 3.4375 5.14583 3.5625 5.3125C3.70833 5.45833 3.89583 5.5625 4.125 5.625C4.20833 6.02083 4.33333 6.39583 4.5 6.75C4.6875 7.08333 4.85417 7.42708 5 7.78125C5.16667 8.13542 5.30208 8.51042 5.40625 8.90625C5.53125 9.28125 5.59375 9.70833 5.59375 10.1875C5.80208 10.5 6.02083 10.6979 6.25 10.7812C6.5 10.8438 6.76042 10.8646 7.03125 10.8438C7.30208 10.8229 7.57292 10.8021 7.84375 10.7812C8.13542 10.7604 8.42708 10.7917 8.71875 10.875C8.78125 10.7708 8.88542 10.7188 9.03125 10.7188C9.17708 10.6979 9.30208 10.6562 9.40625 10.5938C9.53125 10.5521 9.59375 10.4479 9.59375 10.2812C9.61458 10.1146 9.70833 10.0208 9.875 10C9.83333 9.64583 9.83333 9.30208 9.875 8.96875C9.9375 8.61458 9.98958 8.28125 10.0312 7.96875C10.0938 7.65625 10.125 7.35417 10.125 7.0625C10.1458 6.77083 10.1042 6.47917 10 6.1875C10.2083 5.79167 10.3333 5.32292 10.375 4.78125C10.4375 4.21875 10.5 3.67708 10.5625 3.15625C10.6458 2.63542 10.7812 2.16667 10.9688 1.75C11.1771 1.3125 11.5312 1.01042 12.0312 0.84375C13.2812 1.90625 14.1562 3.33333 14.6562 5.125C14.4479 6 14.3229 6.8125 14.2812 7.5625C14.2604 8.3125 14.2604 9.0625 14.2812 9.8125C14.6354 9.70833 15 9.625 15.375 9.5625C15.7708 9.5 16.1146 9.44792 16.4062 9.40625Z" fill="eyes"/>
</svg>
